<svg id="visual" viewBox="0 0 500 120" width="500" height="120" xmlns="http://www.w3.org/2000/svg" xmlns:xlink="http://www.w3.org/1999/xlink" version="1.1"><rect x="0" y="0" width="500" height="120" fill="transparent"></rect><path d="M0 80L2.7 79.5C5.3 79 10.7 78 16 73.5C21.3 69 26.7 61 32 65.5C37.3 70 42.7 87 48.2 82.7C53.7 78.3 59.3 52.7 64.8 46.8C70.3 41 75.7 55 81 57.3C86.3 59.7 91.7 50.3 97 51.5C102.3 52.7 107.7 64.3 113 69.7C118.3 75 123.7 74 129 74.5C134.3 75 139.7 77 145 75C150.3 73 155.7 67 161 71.7C166.3 76.3 171.7 91.7 177.2 90.2C182.7 88.7 188.3 70.3 193.8 64.8C199.3 59.3 204.7 66.7 210 62.3C215.3 58 220.7 42 226 38.2C231.3 34.3 236.7 42.7 242 43C247.3 43.3 252.7 35.7 258 39C263.3 42.3 268.7 56.7 274 68.5C279.3 80.3 284.7 89.7 290 82.3C295.3 75 300.7 51 306.2 42C311.7 33 317.3 39 322.8 45.5C328.3 52 333.7 59 339 60C344.3 61 349.7 56 355 62.2C360.3 68.3 365.7 85.7 371 84.8C376.3 84 381.7 65 387 60.2C392.3 55.3 397.7 64.7 403 69C408.3 73.3 413.7 72.7 419 63.8C424.3 55 429.7 38 435.2 35.7C440.7 33.3 446.3 45.7 451.8 59C457.3 72.3 462.7 86.7 468 92.2C473.3 97.7 478.7 94.3 484 88C489.3 81.7 494.7 72.3 497.3 67.7L500 63L500 0L497.3 0C494.7 0 489.3 0 484 0C478.7 0 473.3 0 468 0C462.7 0 457.3 0 451.8 0C446.3 0 440.7 0 435.2 0C429.7 0 424.3 0 419 0C413.7 0 408.3 0 403 0C397.7 0 392.3 0 387 0C381.7 0 376.3 0 371 0C365.7 0 360.3 0 355 0C349.7 0 344.3 0 339 0C333.7 0 328.3 0 322.8 0C317.3 0 311.7 0 306.2 0C300.7 0 295.3 0 290 0C284.7 0 279.3 0 274 0C268.7 0 263.3 0 258 0C252.7 0 247.3 0 242 0C236.7 0 231.3 0 226 0C220.7 0 215.3 0 210 0C204.7 0 199.3 0 193.8 0C188.3 0 182.7 0 177.2 0C171.7 0 166.3 0 161 0C155.7 0 150.3 0 145 0C139.7 0 134.3 0 129 0C123.7 0 118.3 0 113 0C107.7 0 102.3 0 97 0C91.7 0 86.3 0 81 0C75.7 0 70.3 0 64.8 0C59.3 0 53.7 0 48.2 0C42.7 0 37.3 0 32 0C26.7 0 21.3 0 16 0C10.7 0 5.3 0 2.7 0L0 0Z" fill="#e91e63" stroke-linecap="round" stroke-linejoin="miter"></path></svg>